# Blender 3.3.21
# www.blender.org
mtllib module example.mtl
g Cube.001_Mesh
v 19.110634 -0.000002 4.289366
v 19.110636 9.431498 4.289366
v 0.978321 0.000001 4.289367
v 0.978323 9.431500 4.289367
v 19.110634 -0.000002 -8.133971
v 19.110634 9.431498 -8.133971
v 0.978321 0.000001 -8.133971
v 0.978322 9.431500 -8.133971
v 17.599371 1.106541 4.289366
v 17.599373 9.431499 4.289366
v 2.488712 9.431500 4.289367
v 2.488710 1.106543 4.289367
v 17.599373 9.431499 -8.133971
v 2.488710 1.106543 -8.133971
v 2.488711 9.431500 -8.133971
v 17.599371 1.106541 -8.133971
vn -0.0000 -0.0000 1.0000
vn -1.0000 -0.0000 -0.0000
vn -0.0000 -0.0000 -1.0000
vn 1.0000 -0.0000 -0.0000
vn -0.0000 -1.0000 -0.0000
vn -0.0000 1.0000 -0.0000
vt 0.375000 0.000000
vt 0.375000 1.000000
vt 0.125000 0.750000
vt 0.625000 0.000000
vt 0.625000 1.000000
vt 0.875000 0.750000
vt 0.125000 0.500000
vt 0.375000 0.250000
vt 0.625000 0.250000
vt 0.875000 0.500000
vt 0.375000 0.750000
vt 0.625000 0.750000
vt 0.375000 0.500000
vt 0.625000 0.500000
vt 0.404331 0.020837
vt 0.375000 0.971356
vt 0.153644 0.750000
vt 0.875000 0.729163
vt 0.625000 0.020837
vt 0.581065 0.971356
vt 0.581065 0.278644
vt 0.625000 0.229175
vt 0.875000 0.520825
vt 0.404331 0.229175
vt 0.375000 0.278644
vt 0.153644 0.500000
vt 0.625000 0.729163
vt 0.581065 0.875693
vt 0.249306 0.500000
vt 0.404331 0.520825
vt 0.375000 0.374306
vt 0.625000 0.520825
vt 0.581065 0.374306
vt 0.375000 0.875693
vt 0.404331 0.729163
vt 0.249306 0.750000
s 0
g off
g Cube.001_Material.001
usemtl Material.001
f 3/8/1 1/1/1 12/24/1
f 4/9/2 7/13/2 3/8/2
f 5/11/3 7/13/3 16/35/3
f 6/12/4 1/2/4 5/11/4
f 7/13/5 1/3/5 3/7/5
f 2/6/6 13/27/6 10/18/6
f 8/14/6 11/23/6 15/32/6
f 12/25/4 15/33/4 11/21/4
f 9/16/2 13/28/2 16/34/2
f 12/26/6 16/36/6 14/29/6
f 11/22/1 4/9/1 3/8/1
f 1/1/1 2/4/1 10/19/1
f 1/1/1 10/19/1 9/15/1
f 12/24/1 11/22/1 3/8/1
f 1/1/1 9/15/1 12/24/1
f 4/9/2 8/14/2 7/13/2
f 13/27/3 6/12/3 5/11/3
f 7/13/3 8/14/3 15/32/3
f 7/13/3 15/32/3 14/30/3
f 16/35/3 13/27/3 5/11/3
f 7/13/3 14/30/3 16/35/3
f 6/12/4 2/5/4 1/2/4
f 7/13/5 5/11/5 1/3/5
f 2/6/6 6/12/6 13/27/6
f 8/14/6 4/10/6 11/23/6
f 12/25/4 14/31/4 15/33/4
f 9/16/2 10/20/2 13/28/2
f 12/26/6 9/17/6 16/36/6
g Cube.002_Cube.002
g Cube.003_Mesh
v 18.043880 1.179795 -0.658492
v 18.043880 5.832411 -0.658492
v 2.164621 1.179798 -0.658491
v 2.164622 5.832414 -0.658491
v 18.043880 1.179795 -2.838411
v 18.043880 5.832411 -2.838411
v 2.164621 1.179798 -2.838410
v 2.164622 5.832414 -2.838410
v 7.041641 5.832413 -0.658492
v 13.372561 5.832412 -0.658492
v 13.372559 1.179796 -0.658492
v 7.041640 1.179797 -0.658492
v 13.372561 5.832412 -2.838411
v 7.041641 5.832413 -2.838411
v 13.372559 1.179796 -2.838411
v 7.041640 1.179797 -2.838411
vn -0.0000 -0.0000 1.0000
vn -1.0000 -0.0000 -0.0000
vn -0.0000 -0.0000 -1.0000
vn 1.0000 -0.0000 -0.0000
vn -0.0000 -1.0000 -0.0000
vn -0.0000 1.0000 -0.0000
vt 0.375000 0.000000
vt 0.375000 1.000000
vt 0.125000 0.750000
vt 0.625000 0.000000
vt 0.625000 1.000000
vt 0.875000 0.750000
vt 0.375000 0.250000
vt 0.125000 0.500000
vt 0.625000 0.250000
vt 0.875000 0.500000
vt 0.375000 0.750000
vt 0.625000 0.750000
vt 0.375000 0.500000
vt 0.625000 0.500000
vt 0.625000 0.173217
vt 0.875000 0.576783
vt 0.625000 0.255393
vt 0.875000 0.676456
vt 0.625000 0.994607
vt 0.625000 0.073544
vt 0.375000 0.073544
vt 0.125000 0.676456
vt 0.375000 0.994607
vt 0.125000 0.576783
vt 0.375000 0.173217
vt 0.375000 0.255393
vt 0.625000 0.676456
vt 0.625000 0.760826
vt 0.625000 0.576783
vt 0.625000 0.489174
vt 0.375000 0.676456
vt 0.375000 0.760826
vt 0.375000 0.489174
vt 0.375000 0.576783
s 0
g off
g Cube.003_Material.001
usemtl Material.001
f 20/45/7 28/61/7 25/51/7
f 18/40/7 27/57/7 17/37/7
f 20/45/8 23/49/8 19/43/8
f 21/47/9 29/63/9 22/48/9
f 23/49/9 30/65/9 32/70/9
f 22/48/10 17/38/10 21/47/10
f 21/47/11 27/58/11 31/67/11
f 19/44/11 32/70/11 28/60/11
f 18/42/12 29/63/12 26/54/12
f 24/50/12 25/52/12 30/65/12
f 30/66/10 28/62/10 32/69/10
f 29/64/8 27/59/8 26/55/8
f 20/45/7 19/43/7 28/61/7
f 18/40/7 26/56/7 27/57/7
f 20/45/8 24/50/8 23/49/8
f 21/47/9 31/67/9 29/63/9
f 23/49/9 24/50/9 30/65/9
f 22/48/10 18/41/10 17/38/10
f 21/47/11 17/39/11 27/58/11
f 19/44/11 23/49/11 32/70/11
f 18/42/12 22/48/12 29/63/12
f 24/50/12 20/46/12 25/52/12
f 30/66/10 25/53/10 28/62/10
f 29/64/8 31/68/8 27/59/8
