# Blender 3.3.21
# www.blender.org
mtllib module4.mtl
o Cube.002
v -6.566783 0.332974 -0.901876
v -6.566783 1.609331 -0.901876
v -6.566783 0.332975 -3.097226
v -6.566783 1.609332 -3.097226
v 8.658838 0.332974 -0.901876
v 8.658838 1.609331 -0.901876
v 8.658838 0.332975 -3.097226
v 8.658838 1.609332 -3.097226
vn -1.0000 -0.0000 -0.0000
vn -0.0000 -0.0000 -1.0000
vn 1.0000 -0.0000 -0.0000
vn -0.0000 -0.0000 1.0000
vn -0.0000 -1.0000 -0.0000
vn -0.0000 1.0000 -0.0000
vt 0.375000 0.000000
vt 0.375000 1.000000
vt 0.125000 0.750000
vt 0.625000 0.000000
vt 0.625000 1.000000
vt 0.875000 0.750000
vt 0.125000 0.500000
vt 0.375000 0.250000
vt 0.625000 0.250000
vt 0.875000 0.500000
vt 0.375000 0.750000
vt 0.625000 0.750000
vt 0.375000 0.500000
vt 0.625000 0.500000
s 0
usemtl Material.003
f 2/4/1 3/8/1 1/1/1
f 4/9/2 7/13/2 3/8/2
f 8/14/3 5/11/3 7/13/3
f 6/12/4 1/2/4 5/11/4
f 7/13/5 1/3/5 3/7/5
f 4/10/6 6/12/6 8/14/6
f 2/4/1 4/9/1 3/8/1
f 4/9/2 8/14/2 7/13/2
f 8/14/3 6/12/3 5/11/3
f 6/12/4 2/5/4 1/2/4
f 7/13/5 5/11/5 1/3/5
f 4/10/6 2/6/6 6/12/6
o Cube.003
v 10.124679 -0.000004 4.289366
v 10.124681 9.431496 4.289369
v -8.007634 -0.000001 4.289367
v -8.007632 9.431498 4.289371
v 10.124679 0.000000 -8.133971
v 10.124680 9.431499 -8.133967
v -8.007634 0.000003 -8.133971
v -8.007633 9.431502 -8.133967
v 8.613416 1.106539 4.289366
v 8.613418 9.431497 4.289369
v -6.497243 9.431498 4.289371
v -6.497245 1.106541 4.289367
v 8.613417 9.431499 -8.133967
v -6.497245 1.106545 -8.133971
v -6.497244 9.431502 -8.133967
v 8.613416 1.106543 -8.133971
vn -0.0000 -0.0000 1.0000
vn -1.0000 -0.0000 -0.0000
vn -0.0000 -0.0000 -1.0000
vn 1.0000 -0.0000 -0.0000
vn -0.0000 -1.0000 -0.0000
vn -0.0000 1.0000 -0.0000
vt 0.375000 0.000000
vt 0.375000 1.000000
vt 0.125000 0.750000
vt 0.625000 0.000000
vt 0.625000 1.000000
vt 0.875000 0.750000
vt 0.125000 0.500000
vt 0.375000 0.250000
vt 0.625000 0.250000
vt 0.875000 0.500000
vt 0.375000 0.750000
vt 0.625000 0.750000
vt 0.375000 0.500000
vt 0.625000 0.500000
vt 0.404331 0.020837
vt 0.375000 0.971356
vt 0.153644 0.750000
vt 0.875000 0.729163
vt 0.625000 0.020837
vt 0.581065 0.971356
vt 0.581065 0.278644
vt 0.625000 0.229175
vt 0.875000 0.520825
vt 0.404331 0.229175
vt 0.375000 0.278644
vt 0.153644 0.500000
vt 0.625000 0.729163
vt 0.581065 0.875693
vt 0.249306 0.500000
vt 0.404331 0.520825
vt 0.375000 0.374306
vt 0.625000 0.520825
vt 0.581065 0.374306
vt 0.375000 0.875693
vt 0.404331 0.729163
vt 0.249306 0.750000
s 0
usemtl Material.003
f 11/22/7 9/15/7 20/38/7
f 12/23/8 15/27/8 11/22/8
f 13/25/9 15/27/9 24/49/9
f 14/26/10 9/16/10 13/25/10
f 15/27/11 9/17/11 11/21/11
f 10/20/12 21/41/12 18/32/12
f 16/28/12 19/37/12 23/46/12
f 20/39/10 23/47/10 19/35/10
f 17/30/8 21/42/8 24/48/8
f 20/40/12 24/50/12 22/43/12
f 19/36/7 12/23/7 11/22/7
f 9/15/7 10/18/7 18/33/7
f 9/15/7 18/33/7 17/29/7
f 20/38/7 19/36/7 11/22/7
f 9/15/7 17/29/7 20/38/7
f 12/23/8 16/28/8 15/27/8
f 21/41/9 14/26/9 13/25/9
f 15/27/9 16/28/9 23/46/9
f 15/27/9 23/46/9 22/44/9
f 24/49/9 21/41/9 13/25/9
f 15/27/9 22/44/9 24/49/9
f 14/26/10 10/19/10 9/16/10
f 15/27/11 13/25/11 9/17/11
f 10/20/12 14/26/12 21/41/12
f 16/28/12 12/24/12 19/37/12
f 20/39/10 22/45/10 23/47/10
f 17/30/8 18/34/8 21/42/8
f 20/40/12 17/31/12 24/50/12
